<svg width="433" height="311" viewBox="0 0 533 311" fill="none" xmlns="http://www.w3.org/2000/svg">
<rect x="0.5" y="0.5" width="532" height="310"/>
<path d="M375.392 148.896C371.189 138.701 365.451 129.32 358.344 121.03C351.037 112.049 343.097 104.265 334.736 97.8854C337.323 94.5905 339.161 92.266 340.464 90.6152C340.316 90.1072 340.131 89.6113 339.911 89.1288L333.264 97.5954C333.035 97.8895 333.089 98.3159 333.387 98.5418C341.862 104.931 349.909 112.782 357.317 121.887C364.347 130.089 370.016 139.355 374.163 149.428C374.472 150.138 374.69 150.742 374.703 151.888C374.309 153.204 372.381 153.678 371.121 153.158C369.497 152.271 368.178 151.006 367.368 149.529C361.283 140.791 355.133 131.887 347.282 124.754C346.11 115.623 343.018 108.798 337.662 103.442C333.275 98.9094 329.065 93.9582 323.703 90.2356C323.398 90.0244 322.983 90.0992 322.773 90.4026C322.562 90.7061 322.636 91.1231 322.94 91.333C328.184 94.9755 332.38 99.9092 336.709 104.379C342.377 110.048 345.408 117.459 346.246 127.7L347.278 140.38C347.373 141.578 347.377 143.63 346.332 143.92C344.395 144.467 339.801 140.24 338.508 137.655C335.755 132.44 334.629 126.453 335.336 120.798C335.382 120.433 335.125 120.1 334.76 120.052C323.842 118.615 314.267 111.421 309.775 101.275C309.626 100.938 309.231 100.783 308.893 100.936C308.556 101.085 308.403 101.48 308.553 101.818C313.143 112.184 322.829 119.593 333.936 121.286C333.711 123.507 333.755 125.77 334.052 128.015C333.978 127.936 333.906 127.857 333.833 127.779C333.329 127.243 332.45 127.803 332.724 128.485C337.908 141.367 342.293 153.938 339.03 166.146C338.885 166.871 338.623 167.38 338.321 167.614C337.59 168.03 336.625 167.843 336.07 167.177C334.926 165.804 334.917 165.231 330.011 146.501C328.619 141.188 327.166 136.047 324.163 131.69C323.729 131.059 322.731 131.553 322.98 132.284C325.754 140.46 326.61 149.277 325.458 157.784C325.21 159.642 324.093 162.148 322.407 161.933C321.4 161.75 320.677 160.732 320.134 158.743C317.925 149.903 319.136 140.18 314.742 132.005C312.57 128.591 310.105 125.532 307.604 122.783C302.21 116.85 295.876 107.647 300.61 98.4736C302.476 95.0276 305.492 92.274 308.318 89.479C311.478 86.3525 313.401 82.6111 315.11 78.6357C314.556 78.7173 314.023 78.8215 313.516 78.9499C311.946 82.5081 310.181 85.755 307.377 88.5286C304.496 91.3771 301.402 94.2055 299.429 97.848C294.315 107.757 300.942 117.44 306.615 123.681C309.077 126.389 311.487 129.381 313.588 132.68C319.227 143.177 315.826 162.261 322.198 163.254C324.683 163.64 326.398 160.844 326.783 157.963C327.686 151.293 327.384 144.437 325.918 137.833C327.475 141.641 328.03 143.594 333.436 164.522C334.028 166.817 335.114 169.155 337.464 169.155C339.13 169.155 340.009 168.083 340.333 166.45C342.672 157.705 341.224 148.846 338.351 139.851C340.155 142.208 343.454 145.187 345.883 145.293C349.007 150.081 351.804 155.104 354.255 160.333C354.911 161.975 355.864 163.35 357.088 164.421C358.563 165.711 360.89 165.632 362.277 164.244C362.313 164.208 362.344 164.169 362.371 164.127C363.15 162.881 363.283 161.225 362.749 159.634C359.867 147.732 354.648 136.508 347.52 126.802C355.161 134.07 360.767 142.539 366.231 150.232C367.124 151.869 368.633 153.325 370.542 154.362C372.661 155.244 375.468 154.339 376.02 152.138C376.111 151.769 376.003 150.138 375.39 148.899L375.392 148.896ZM361.279 163.349C360.373 164.198 358.906 164.231 357.969 163.413C356.905 162.483 356.074 161.278 355.48 159.8C353.066 154.645 350.323 149.697 347.269 144.974C348.551 144.203 348.761 142.163 348.611 140.271L347.725 129.386C354.094 138.53 358.789 148.952 361.466 160C361.878 161.234 361.808 162.451 361.278 163.35L361.279 163.349Z" fill="#00201E"/>
<path d="M361.212 76.2713C360.934 76.0293 360.512 76.0601 360.268 76.3381C358.652 78.2028 345.867 89.5647 341.565 93.7966C341.591 91.0658 340.648 88.3817 338.848 86.1962C336.066 83.2501 333.008 81.1114 329.769 79.8442C324.803 77.8071 316.168 76.8113 311.382 79.0021C312.769 75.893 322.031 54.0808 322.745 52.5877C322.904 52.2549 322.763 51.8552 322.431 51.6962C322.096 51.5371 321.698 51.6788 321.539 52.0103C320.093 55.0352 311.863 74.7996 309.584 79.7253C308.518 81.2932 308.204 83.1766 308.985 85.298C309.183 85.8353 309.441 86.3633 309.745 86.8793C310.05 86.4943 310.342 86.1026 310.62 85.7043C309.864 84.246 309.614 82.7422 310.211 81.3921C310.22 81.3841 310.229 81.3761 310.237 81.3667C313.587 77.878 323.905 78.8845 329.27 81.0847C332.334 82.2837 335.229 84.3128 337.845 87.0798C339.729 89.3668 340.548 92.3102 340.116 95.2029C338.74 96.2134 336.883 96.6705 334.788 96.736C334.788 96.736 333.85 98.0527 333.879 98.0754C336.585 98.1249 339.05 97.6303 340.881 96.2989C341.013 96.2682 341.14 96.1933 341.242 96.0664C342.926 93.9624 359.405 79.3737 361.278 77.2136C361.52 76.9343 361.489 76.5132 361.211 76.2699L361.212 76.2713Z" fill="#00201E"/>
<path d="M326.927 30.5136C326.829 30.5791 326.75 30.6713 326.699 30.7769C317.88 49.1377 316.709 54.2386 310.89 71.8468C310.677 72.4884 311.453 73.0084 311.968 72.5566C316.414 68.6174 322.87 65.567 337.024 72.7985C348.625 78.7361 349.797 87.9941 347.607 90.3239C347.019 90.9495 347.923 91.8558 348.552 91.2703C360.502 80.0568 365.222 78.2923 378.542 62.1611C378.579 62.1144 378.611 62.0636 378.635 62.0088C385.468 46.7932 342.978 19.6102 326.927 30.5136Z" fill="#00201E"/>
<path d="M233.943 97.8478C231.969 94.2039 228.876 91.3768 225.995 88.5283C225.256 87.7972 224.589 87.0326 223.978 86.2373C224.134 85.9271 224.272 85.613 224.388 85.2962C225.169 83.1749 224.856 81.2915 223.789 79.7236C221.51 74.7978 213.28 55.0348 211.834 52.0086C211.675 51.6757 211.277 51.5354 210.942 51.6944C210.61 51.8535 210.469 52.2532 210.628 52.586C211.342 54.0791 220.604 75.8913 221.992 79.0004C217.205 76.8096 208.57 77.8054 203.604 79.8425C200.365 81.1097 197.307 83.2484 194.525 86.1945C192.723 88.38 191.782 91.064 191.808 93.7949C187.506 89.5629 174.721 78.2011 173.105 76.3364C172.863 76.0583 172.439 76.0276 172.161 76.2695C171.883 76.5115 171.852 76.9339 172.094 77.2132C173.819 79.2009 187.902 91.7057 191.456 95.3334C192.894 96.8011 194.77 97.94 198.402 98.067C190.128 104.412 182.268 112.133 175.03 121.03C167.922 129.32 162.184 138.701 157.981 148.896C157.371 150.135 157.261 151.766 157.352 152.135C157.904 154.336 160.711 155.241 162.83 154.359C164.738 153.322 166.247 151.865 167.14 150.229C172.605 142.536 178.211 134.067 185.851 126.799C178.723 136.505 173.504 147.728 170.622 159.631C170.089 161.222 170.221 162.879 171.001 164.124C171.028 164.167 171.058 164.207 171.094 164.242C172.482 165.629 174.809 165.708 176.283 164.418C177.508 163.347 178.461 161.972 179.117 160.33C181.567 155.101 184.365 150.078 187.489 145.29C189.918 145.184 193.217 142.205 195.021 139.848C192.147 148.843 190.7 157.702 193.039 166.447C193.361 168.081 194.242 169.153 195.907 169.153C198.256 169.153 199.343 166.815 199.936 164.52C205.342 143.591 205.895 141.638 207.454 137.83C205.986 144.434 205.684 151.29 206.589 157.96C206.974 160.841 208.689 163.639 211.174 163.251C217.547 162.259 214.147 143.174 219.783 132.677C221.886 129.378 224.295 126.386 226.757 123.678C232.431 117.437 239.057 107.754 233.943 97.8451V97.8478ZM223.136 81.365C223.145 81.3744 223.153 81.3824 223.163 81.3904C223.662 82.5212 223.568 83.759 223.08 84.9888C221.969 83.3406 221.052 81.5802 220.207 79.7289C221.418 80.0952 222.431 80.6312 223.136 81.365ZM193.258 95.2011C193.062 93.8791 193.126 92.5478 193.433 91.2739C194.511 92.6387 195.902 94.4004 197.695 96.6808C195.965 96.5258 194.437 96.066 193.258 95.2011ZM177.894 159.798C177.302 161.277 176.469 162.481 175.405 163.411C174.469 164.23 173.003 164.196 172.096 163.347C171.566 162.448 171.497 161.231 171.907 159.998C174.584 148.951 179.279 138.527 185.648 129.383L184.762 140.268C184.612 142.16 184.822 144.2 186.104 144.972C183.051 149.694 180.307 154.642 177.893 159.797L177.894 159.798ZM225.769 122.78C223.268 125.531 220.805 128.588 218.631 132.002C214.237 140.177 215.448 149.9 213.239 158.74C212.696 160.729 211.973 161.747 210.967 161.93C209.278 162.146 208.162 159.639 207.915 157.781C206.761 149.274 207.618 140.458 210.393 132.281C210.64 131.55 209.645 131.057 209.21 131.687C206.207 136.042 204.754 141.185 203.362 146.498C198.456 165.228 198.447 165.801 197.303 167.174C196.748 167.84 195.783 168.027 195.052 167.611C194.75 167.379 194.489 166.869 194.343 166.144C191.081 153.934 195.464 141.364 200.649 128.482C200.924 127.799 200.044 127.239 199.54 127.776C199.467 127.855 199.395 127.934 199.321 128.012C199.618 125.767 199.662 123.504 199.438 121.283C210.544 119.59 220.23 112.181 224.82 101.815C224.97 101.478 224.817 101.083 224.481 100.933C224.142 100.78 223.748 100.936 223.598 101.272C219.106 111.418 209.532 118.612 198.613 120.049C198.249 120.097 197.991 120.43 198.037 120.795C198.744 126.45 197.618 132.437 194.865 137.652C193.572 140.237 188.978 144.462 187.041 143.917C185.997 143.627 186 141.575 186.095 140.377L187.127 127.697C187.965 117.456 190.996 110.045 196.664 104.376C200.992 99.9049 205.189 94.9712 210.433 91.3301C210.737 91.1202 210.811 90.7031 210.6 90.3997C210.39 90.095 209.975 90.0214 209.67 90.2326C204.308 93.9567 200.098 98.9064 195.711 103.439C190.355 108.797 187.262 115.62 186.091 124.751C178.24 131.885 172.092 140.789 166.006 149.526C165.197 151.001 163.876 152.269 162.252 153.155C160.992 153.675 159.064 153.202 158.67 151.885C158.683 150.739 158.901 150.135 159.21 149.425C163.358 139.353 169.025 130.087 176.056 121.884C183.464 112.779 191.511 104.928 199.986 98.5388C200.284 98.3129 200.339 97.8865 200.109 97.5925L193.934 89.726C194.326 88.781 194.859 87.8881 195.528 87.0767C198.144 84.3084 201.039 82.2806 204.103 81.0816C207.861 79.5404 214.053 78.5847 218.575 79.3519C220.208 83.0586 222.085 86.5393 225.054 89.4774C227.88 92.2724 230.895 95.0273 232.761 98.472C237.496 107.644 231.161 116.849 225.768 122.781L225.769 122.78Z" fill="#00201E"/>
<path d="M206.446 30.5136C206.543 30.5791 206.622 30.6713 206.673 30.7769C215.493 49.1377 216.663 54.2386 222.482 71.8468C222.696 72.4884 221.919 73.0084 221.405 72.5566C216.959 68.6174 210.503 65.567 196.348 72.7985C184.747 78.7361 183.575 87.9941 185.766 90.3239C186.354 90.9495 185.449 91.8558 184.821 91.2703C172.871 80.0568 168.151 78.2923 154.831 62.1611C154.793 62.1144 154.761 62.0636 154.737 62.0088C147.905 46.7932 190.395 19.6102 206.446 30.5136Z" fill="#00201E"/>
<path d="M261.486 222.626C260.326 222.626 259.286 221.94 258.98 220.871C258.519 219.03 258.634 216.953 259.29 215.151L261.339 207.97C261.441 207.615 261.815 207.414 262.165 207.51C262.521 207.612 262.725 207.982 262.625 208.336L260.561 215.561C259.98 217.164 259.88 218.956 260.271 220.524C260.462 221.187 261.291 221.409 261.946 221.222C262.981 220.927 263.765 222.624 261.485 222.624L261.486 222.626Z" fill="#00201E"/>
<path d="M247.976 204.843C247.362 204.843 247.072 204.077 247.535 203.672C248.788 202.574 250.601 202.131 252.383 202.487C252.745 202.559 252.979 202.91 252.907 203.273C252.834 203.635 252.486 203.871 252.121 203.797C250.744 203.521 249.359 203.851 248.417 204.676C248.29 204.787 248.133 204.843 247.976 204.843Z" fill="#00201E"/>
<path d="M276.575 205.554C275.229 204.343 273.633 203.838 271.964 204.096C271.597 204.152 271.258 203.902 271.202 203.537C271.146 203.172 271.396 202.831 271.76 202.775C273.839 202.457 275.816 203.072 277.469 204.561C278.13 205.154 277.225 206.138 276.575 205.554Z" fill="#00201E"/>
<path d="M247.014 209.595C246.707 209.39 246.624 208.976 246.828 208.668C247.033 208.362 247.446 208.278 247.755 208.482C249.677 209.763 252.131 209.553 253.861 207.957C254.132 207.706 254.556 207.723 254.806 207.995C255.057 208.266 255.04 208.69 254.768 208.94C252.572 210.967 249.456 211.224 247.014 209.595Z" fill="#00201E"/>
<path d="M269.52 209.554C269.235 209.32 269.194 208.899 269.429 208.613C269.663 208.328 270.084 208.285 270.37 208.522C272.582 210.344 275.887 210.285 278.057 208.387C278.334 208.143 278.756 208.17 279.001 208.45C279.244 208.728 279.216 209.149 278.938 209.393C276.28 211.719 272.229 211.786 269.52 209.554Z" fill="#00201E"/>
<path d="M255.37 227.639C255.033 227.488 254.882 227.092 255.035 226.755C255.184 226.419 255.581 226.269 255.918 226.42C259.979 228.241 264.77 227.975 268.731 225.713C269.05 225.528 269.459 225.641 269.642 225.962C269.825 226.282 269.714 226.69 269.394 226.873C265.063 229.347 259.82 229.635 255.37 227.639Z" fill="#00201E"/>
<path d="M342.061 281.095C326.955 267.035 309.477 256.756 290.109 250.538C289.289 237.866 288.46 235.06 291.279 226.536C293.501 227.008 295.596 225.552 296.924 223.664C298.513 220.772 299.411 217.503 299.803 213.993C300.267 209.832 299.279 206.629 297.065 205.708C297.695 201.455 297.974 197.14 297.892 192.798C297.561 182.399 293.331 175.549 284.976 171.868C279.322 169.189 272.933 168.097 266.491 168.71C254.023 169.897 244.345 178.302 240.842 191.62C238.361 201.25 239.401 212.381 239.641 222.457C239.725 226 240.245 229.923 241.601 233.75C242.956 237.577 245.905 240.601 249.585 242.126C250.011 242.233 250.555 242.484 250.646 242.748C250.774 243.115 250.797 242.19 250.133 251.229C230.493 257.205 213.239 267.605 198.844 282.147C198.427 282.568 198.729 283.285 199.319 283.285C199.491 283.285 199.662 283.22 199.793 283.088C213.938 268.798 230.875 258.553 250.145 252.624C250.47 255.747 252.598 258.561 254.702 260.945C258.204 264.867 262.237 268.562 266.966 272.179C267.442 272.655 268.407 272.964 268.618 272.964C269.194 272.964 269.645 272.782 270.07 272.377C278.047 267.149 285.578 259.34 289.874 251.868C322.869 262.509 340.61 282.254 341.604 282.254C342.207 282.254 342.505 281.51 342.06 281.096L342.061 281.095ZM269.285 271.293C269.126 271.396 269.036 271.595 268.716 271.623C268.381 271.511 268.07 271.392 267.845 271.175C263.118 267.551 259.145 263.913 255.702 260.056C253.544 257.612 251.356 254.703 251.441 251.631L252.028 243.667C252.173 243.158 252.078 242.82 251.853 242.153C251.72 241.756 250.983 241.087 250.002 240.863C246.756 239.51 244.086 236.771 242.859 233.307C241.559 229.636 241.057 225.861 240.975 222.43C240.733 212.258 239.681 201.48 242.133 191.961C245.536 179.03 254.867 171.164 266.616 170.044C272.817 169.457 278.965 170.503 284.419 173.087C292.272 176.548 296.242 183.009 296.554 192.836C296.634 197.078 296.364 201.297 295.75 205.459C294.13 205.491 292.486 206.746 291.187 209.005C291.002 209.325 291.113 209.734 291.434 209.918C291.752 210.102 292.161 209.992 292.347 209.671C295.367 204.419 299.27 206.708 298.474 213.848C298.101 217.202 297.253 220.295 295.792 222.961C294.345 225.011 291.979 226.171 290.157 224.478C289.886 224.226 289.462 224.242 289.212 224.512C288.961 224.784 288.977 225.206 289.247 225.457C289.496 225.689 289.758 225.885 290.032 226.048C287.129 234.79 287.921 237.155 288.801 251.058C284.61 258.418 277.169 266.141 269.284 271.297L269.285 271.293Z" fill="#00201E"/>
<path d="M264.933 175.052C264.502 175.052 264.185 174.654 264.28 174.237C269.864 149.555 250.929 123.105 262.412 98.9C262.571 98.5659 262.968 98.4255 263.302 98.5832C263.636 98.741 263.778 99.1406 263.619 99.4735C252.404 123.114 271.254 149.466 265.584 174.532C265.513 174.843 265.237 175.052 264.933 175.052Z" fill="#00201E"/>
<path d="M283.089 78.9652C278.373 80.755 273.664 82.4406 269.682 85.5364C265.719 88.6188 263.051 94.9948 262.211 99.5061C262.051 100.36 263.329 100.624 263.52 99.7775C263.954 97.7818 268.146 97.1135 269.738 96.0481C272.496 94.2035 275.05 91.6036 277.814 88.4276C279.155 86.8878 282.351 80.6748 283.605 80.199C284.416 79.8915 283.981 78.627 283.089 78.9652Z" fill="#00201E"/>
<path d="M249.079 92.9339C249.155 92.3618 248.518 91.9702 248.042 92.2936C243.583 95.3186 243.147 102.062 245.302 106.834C247.388 111.455 252.497 116.466 258.223 117.103C258.547 117.137 258.834 116.941 258.93 116.65C261.115 110.097 247.781 102.664 249.079 92.9339Z" fill="#00201E"/>
<path d="M263.331 140.056C260.889 134.52 252.847 131.523 248.333 130.107C243.45 128.575 238.048 128.42 233.022 129.913C232.253 130.024 232.214 131.076 232.931 131.245C233.106 131.356 233.536 131.69 233.953 132.013C245.223 140.771 251.727 142.315 262.799 140.989C263.246 140.936 263.512 140.465 263.331 140.056Z" fill="#00201E"/>
<path d="M282.411 104.713C275.039 105.451 262.373 108.88 259.167 115.558C258.467 117.012 263.268 118.463 270.008 116.333C275.451 114.519 279.406 110.138 282.992 105.804C283.373 105.343 283.002 104.655 282.411 104.713Z" fill="#00201E"/>
<path d="M288.455 128.454C283.465 127.869 278.299 128.703 273.5 130.871C273.381 130.926 261.853 136.814 262.81 140.339C262.865 140.542 263.008 140.829 263.417 141.029C265.325 141.96 273.873 140.678 278.355 138.562C282.765 136.481 286.273 133.332 288.927 129.498C289.214 129.084 288.953 128.513 288.455 128.454Z" fill="#00201E"/>
</svg>
